<svg width="975" height="301" viewBox="0 0 975 301" fill="none" xmlns="http://www.w3.org/2000/svg">
<path d="M256.538 143.911C257.895 165.152 252.831 186.309 242.005 204.633C231.179 222.958 215.091 237.602 195.832 246.662C176.573 255.722 155.034 258.78 134.015 255.438C112.995 252.096 93.4673 242.508 77.9688 227.921C62.4703 213.334 51.718 194.422 47.1095 173.643C42.501 152.864 44.2494 131.18 52.1275 111.408C60.0055 91.6363 73.6489 74.6914 91.2843 62.7758C108.92 50.8602 129.732 44.525 151.015 44.5935L150.962 61.0932C132.989 61.0354 115.414 66.3852 100.522 76.4474C85.6293 86.5096 74.108 100.819 67.4553 117.515C60.8027 134.212 59.3262 152.524 63.2179 170.07C67.1096 187.617 76.1894 203.587 89.2773 215.906C102.365 228.224 118.856 236.32 136.606 239.143C154.356 241.965 172.545 239.383 188.808 231.732C205.071 224.081 218.657 211.715 227.799 196.24C236.941 180.766 241.218 162.9 240.072 144.963L256.538 143.911Z" fill="url(#paint0_linear_40_2)"/>
<path d="M99.3606 195.711C74.4435 168.88 75.9952 126.93 102.826 102.013C129.658 77.0954 171.608 78.6471 196.525 105.478C221.442 132.31 219.891 174.26 193.059 199.177C166.228 224.094 124.278 222.543 99.3606 195.711ZM184.865 116.306C165.928 95.9146 134.046 94.7353 113.654 113.672C93.2626 132.609 92.0833 164.492 111.02 184.883C129.957 205.275 161.84 206.454 182.231 187.517C202.623 168.58 203.802 136.698 184.865 116.306Z" fill="url(#paint1_linear_40_2)"/>
<rect x="146.534" y="142.821" width="109.263" height="16.4425" fill="url(#paint2_linear_40_2)"/>
<circle cx="150.777" cy="150.777" r="26.5201" fill="url(#paint3_linear_40_2)"/>
<path d="M351.176 204.896C342.899 204.896 335.261 202.976 328.264 199.136C321.352 195.211 315.848 189.792 311.752 182.88C307.741 175.883 305.736 168.032 305.736 159.328C305.736 150.624 307.741 142.816 311.752 135.904C315.848 128.992 321.352 123.616 328.264 119.776C335.261 115.851 342.899 113.888 351.176 113.888C359.539 113.888 367.176 115.851 374.088 119.776C381.085 123.616 386.589 128.992 390.6 135.904C394.611 142.816 396.616 150.624 396.616 159.328C396.616 168.032 394.611 175.883 390.6 182.88C386.589 189.792 381.085 195.211 374.088 199.136C367.176 202.976 359.539 204.896 351.176 204.896ZM351.176 192.224C357.064 192.224 362.312 190.901 366.92 188.256C371.528 185.525 375.112 181.685 377.672 176.736C380.317 171.701 381.64 165.899 381.64 159.328C381.64 152.757 380.317 146.997 377.672 142.048C375.112 137.099 371.528 133.301 366.92 130.656C362.312 128.011 357.064 126.688 351.176 126.688C345.288 126.688 340.04 128.011 335.432 130.656C330.824 133.301 327.197 137.099 324.552 142.048C321.992 146.997 320.712 152.757 320.712 159.328C320.712 165.899 321.992 171.701 324.552 176.736C327.197 181.685 330.824 185.525 335.432 188.256C340.04 190.901 345.288 192.224 351.176 192.224ZM425.567 143.84C428.042 140.597 431.412 137.867 435.679 135.648C439.946 133.429 444.767 132.32 450.143 132.32C456.287 132.32 461.876 133.856 466.911 136.928C472.031 139.915 476.042 144.139 478.943 149.6C481.844 155.061 483.295 161.333 483.295 168.416C483.295 175.499 481.844 181.856 478.943 187.488C476.042 193.035 472.031 197.387 466.911 200.544C461.876 203.616 456.287 205.152 450.143 205.152C444.767 205.152 439.988 204.085 435.807 201.952C431.626 199.733 428.212 197.003 425.567 193.76V237.536H410.975V133.472H425.567V143.84ZM468.447 168.416C468.447 163.552 467.423 159.371 465.375 155.872C463.412 152.288 460.767 149.6 457.439 147.808C454.196 145.931 450.698 144.992 446.943 144.992C443.274 144.992 439.775 145.931 436.447 147.808C433.204 149.685 430.559 152.416 428.511 156C426.548 159.584 425.567 163.808 425.567 168.672C425.567 173.536 426.548 177.803 428.511 181.472C430.559 185.056 433.204 187.787 436.447 189.664C439.775 191.541 443.274 192.48 446.943 192.48C450.698 192.48 454.196 191.541 457.439 189.664C460.767 187.701 463.412 184.885 465.375 181.216C467.423 177.547 468.447 173.28 468.447 168.416ZM562.365 167.008C562.365 169.653 562.194 172.043 561.853 174.176H507.965C508.392 179.808 510.482 184.331 514.237 187.744C517.992 191.157 522.6 192.864 528.061 192.864C535.912 192.864 541.458 189.579 544.701 183.008H560.445C558.312 189.493 554.429 194.827 548.797 199.008C543.25 203.104 536.338 205.152 528.061 205.152C521.32 205.152 515.261 203.659 509.885 200.672C504.594 197.6 500.413 193.333 497.341 187.872C494.354 182.325 492.861 175.925 492.861 168.672C492.861 161.419 494.312 155.061 497.213 149.6C500.2 144.053 504.338 139.787 509.629 136.8C515.005 133.813 521.149 132.32 528.061 132.32C534.717 132.32 540.648 133.771 545.853 136.672C551.058 139.573 555.112 143.669 558.013 148.96C560.914 154.165 562.365 160.181 562.365 167.008ZM547.133 162.4C547.048 157.024 545.128 152.715 541.373 149.472C537.618 146.229 532.968 144.608 527.421 144.608C522.386 144.608 518.077 146.229 514.493 149.472C510.909 152.629 508.776 156.939 508.093 162.4H547.133ZM612.309 132.32C617.856 132.32 622.805 133.472 627.157 135.776C631.594 138.08 635.05 141.493 637.525 146.016C640 150.539 641.237 156 641.237 162.4V204H626.773V164.576C626.773 158.261 625.194 153.44 622.037 150.112C618.88 146.699 614.57 144.992 609.109 144.992C603.648 144.992 599.296 146.699 596.053 150.112C592.896 153.44 591.317 158.261 591.317 164.576V204H576.725V133.472H591.317V141.536C593.706 138.635 596.736 136.373 600.405 134.752C604.16 133.131 608.128 132.32 612.309 132.32ZM689.162 204.896C683.189 204.896 677.813 203.872 673.034 201.824C668.255 199.691 664.501 196.704 661.77 192.864C659.039 189.024 657.674 184.544 657.674 179.424H673.29C673.631 183.264 675.125 186.421 677.77 188.896C680.501 191.371 684.298 192.608 689.162 192.608C694.197 192.608 698.122 191.413 700.938 189.024C703.754 186.549 705.162 183.392 705.162 179.552C705.162 176.565 704.266 174.133 702.474 172.256C700.767 170.379 698.591 168.928 695.946 167.904C693.386 166.88 689.802 165.771 685.194 164.576C679.391 163.04 674.655 161.504 670.986 159.968C667.402 158.347 664.33 155.872 661.77 152.544C659.21 149.216 657.93 144.779 657.93 139.232C657.93 134.112 659.21 129.632 661.77 125.792C664.33 121.952 667.914 119.008 672.522 116.96C677.13 114.912 682.463 113.888 688.522 113.888C697.141 113.888 704.181 116.064 709.642 120.416C715.189 124.683 718.261 130.571 718.858 138.08H702.73C702.474 134.837 700.938 132.064 698.122 129.76C695.306 127.456 691.594 126.304 686.986 126.304C682.805 126.304 679.391 127.371 676.746 129.504C674.101 131.637 672.778 134.709 672.778 138.72C672.778 141.451 673.589 143.712 675.21 145.504C676.917 147.211 679.05 148.576 681.61 149.6C684.17 150.624 687.669 151.733 692.106 152.928C697.994 154.549 702.773 156.171 706.442 157.792C710.197 159.413 713.354 161.931 715.914 165.344C718.559 168.672 719.882 173.152 719.882 178.784C719.882 183.307 718.645 187.573 716.17 191.584C713.781 195.595 710.239 198.837 705.546 201.312C700.938 203.701 695.477 204.896 689.162 204.896ZM732.236 168.672C732.236 161.419 733.687 155.061 736.588 149.6C739.575 144.053 743.671 139.787 748.876 136.8C754.081 133.813 760.055 132.32 766.796 132.32C775.329 132.32 782.369 134.368 787.916 138.464C793.548 142.475 797.345 148.235 799.308 155.744H783.564C782.284 152.245 780.236 149.515 777.42 147.552C774.604 145.589 771.063 144.608 766.796 144.608C760.823 144.608 756.044 146.741 752.46 151.008C748.961 155.189 747.212 161.077 747.212 168.672C747.212 176.267 748.961 182.197 752.46 186.464C756.044 190.731 760.823 192.864 766.796 192.864C775.244 192.864 780.833 189.152 783.564 181.728H799.308C797.26 188.896 793.42 194.613 787.788 198.88C782.156 203.061 775.159 205.152 766.796 205.152C760.055 205.152 754.081 203.659 748.876 200.672C743.671 197.6 739.575 193.333 736.588 187.872C733.687 182.325 732.236 175.925 732.236 168.672ZM808.986 168.416C808.986 161.333 810.437 155.061 813.338 149.6C816.325 144.139 820.335 139.915 825.37 136.928C830.49 133.856 836.122 132.32 842.266 132.32C847.813 132.32 852.634 133.429 856.73 135.648C860.911 137.781 864.239 140.469 866.714 143.712V133.472H881.434V204H866.714V193.504C864.239 196.832 860.869 199.605 856.602 201.824C852.335 204.043 847.471 205.152 842.01 205.152C835.951 205.152 830.405 203.616 825.37 200.544C820.335 197.387 816.325 193.035 813.338 187.488C810.437 181.856 808.986 175.499 808.986 168.416ZM866.714 168.672C866.714 163.808 865.69 159.584 863.642 156C861.679 152.416 859.077 149.685 855.834 147.808C852.591 145.931 849.093 144.992 845.338 144.992C841.583 144.992 838.085 145.931 834.842 147.808C831.599 149.6 828.954 152.288 826.906 155.872C824.943 159.371 823.962 163.552 823.962 168.416C823.962 173.28 824.943 177.547 826.906 181.216C828.954 184.885 831.599 187.701 834.842 189.664C838.17 191.541 841.669 192.48 845.338 192.48C849.093 192.48 852.591 191.541 855.834 189.664C859.077 187.787 861.679 185.056 863.642 181.472C865.69 177.803 866.714 173.536 866.714 168.672ZM936.184 132.32C941.731 132.32 946.68 133.472 951.032 135.776C955.469 138.08 958.925 141.493 961.4 146.016C963.875 150.539 965.112 156 965.112 162.4V204H950.648V164.576C950.648 158.261 949.069 153.44 945.912 150.112C942.755 146.699 938.445 144.992 932.984 144.992C927.523 144.992 923.171 146.699 919.928 150.112C916.771 153.44 915.192 158.261 915.192 164.576V204H900.6V133.472H915.192V141.536C917.581 138.635 920.611 136.373 924.28 134.752C928.035 133.131 932.003 132.32 936.184 132.32Z" fill="white"/>
<defs>
<linearGradient id="paint0_linear_40_2" x1="68.7727" y1="312.991" x2="159.036" y2="-19.6266" gradientUnits="userSpaceOnUse">
<stop stop-color="#5356FF"/>
<stop offset="1" stop-color="#67C6E3"/>
</linearGradient>
<linearGradient id="paint1_linear_40_2" x1="201.191" y1="50.2122" x2="140.545" y2="256.904" gradientUnits="userSpaceOnUse">
<stop stop-color="#5356FF"/>
<stop offset="1" stop-color="#67C6E3"/>
</linearGradient>
<linearGradient id="paint2_linear_40_2" x1="112.728" y1="155.671" x2="125.135" y2="106.591" gradientUnits="userSpaceOnUse">
<stop stop-color="#5356FF"/>
<stop offset="1" stop-color="#67C6E3"/>
</linearGradient>
<linearGradient id="paint3_linear_40_2" x1="107.847" y1="165.706" x2="181.882" y2="121.632" gradientUnits="userSpaceOnUse">
<stop stop-color="#5356FF"/>
<stop offset="1" stop-color="#67C6E3"/>
</linearGradient>
</defs>
</svg>
